<?xml version="1.0" encoding="UTF-8"?>
<svg id="Layer_2" data-name="Layer 2" xmlns="http://www.w3.org/2000/svg" viewBox="0 0 22.37 22.54">
  <defs>
    <style>
      .cls-1 {
        fill: #101010;
      }

      .cls-1, .cls-2, .cls-3 {
        stroke-width: 0px;
      }

      .cls-2 {
        fill: #ebc28e;
      }

      .cls-3 {
        fill: #ffeeda;
      }
    </style>
  </defs>
  <g id="Layer_1-2" data-name="Layer 1" focusable="false">
    <path class="cls-3" d="M20.77,15.3V2.01c-.02-1.11-.88-2.01-1.97-2.01H5.27C2.35.05,0,2.5,0,5.5c0,1.01.26,1.88.67,2.64.34.63.88,1.23,1.41,1.67.15.13.08.07.54.36.64.4,1.36.6,1.36.6v7.95c0,.38.04.74.14,1.08.3,1.12,1.06,1.98,2.09,2.4.43.17.92.29,1.44.3l10.81.04c2.15,0,3.9-1.79,3.9-4,0-1.31-.63-2.49-1.59-3.22Z"/>
    <path class="cls-2" d="M21.04,18.61c-.04,1.42-1.18,2.56-2.58,2.56l-7.44-.03c.59-.71.95-1.62.95-2.61,0-1.56-.91-2.64-.91-2.64h7.4c1.42,0,2.58,1.18,2.58,2.64v.08Z"/>
    <path class="cls-1" d="M2.79,8.69c-.86-.83-1.46-1.91-1.46-3.18v-.14c.07-2.18,1.82-3.93,3.94-4h13.54c.35.02.64.27.64.64v11.73c.31.05.46.1.76.21.24.09.56.28.56.28V2.02c-.02-1.11-.88-2.01-1.97-2.01H5.27C2.35.05,0,2.5,0,5.51c0,1.74.78,3.24,2.05,4.28.09.07.17.16.4.16.4,0,.68-.33.66-.68,0-.3-.13-.41-.32-.59Z"/>
    <path class="cls-1" d="M18.46,14.52H7.85c-.71,0-1.29.6-1.29,1.33v1.56c.02.72.62,1.34,1.33,1.34h.79v-1.34h-.79v-1.53h.43c1.34,0,2.33,1.27,2.33,2.64,0,1.21-1.08,2.76-2.88,2.63-1.6-.11-2.46-1.56-2.46-2.63V5.27c0-.6-.48-1.08-1.06-1.08h-1.06v1.36h.79v12.99c-.04,2.64,1.84,3.97,3.79,3.97l10.7.04c2.15,0,3.9-1.79,3.9-4s-1.76-4.01-3.91-4.01ZM21.04,18.61c-.04,1.42-1.18,2.56-2.58,2.56l-7.44-.03c.59-.71.95-1.62.95-2.61,0-1.56-.91-2.64-.91-2.64h7.4c1.42,0,2.58,1.18,2.58,2.64v.08Z"/>
    <path class="cls-1" d="M15.6,5.79H7.6v-1.36h8c.36,0,.66.3.66.68s-.29.68-.66.68Z"/>
    <path class="cls-1" d="M15.6,12.17H7.6v-1.36h8c.36,0,.66.3.66.68s-.29.68-.66.68Z"/>
    <path class="cls-1" d="M17.01,8.98H7.6v-1.36h9.41c.36,0,.66.3.66.68,0,.37-.29.68-.65.68Z"/>
  </g>
</svg>